<svg width="54" height="54" viewBox="0 0 54 54" fill="none" xmlns="http://www.w3.org/2000/svg">
    <path d="M39.3217 0H37.4364V7.27941H39.3217V0Z" fill="#1D1D1B"/>
    <path d="M0 46.5882H20.7018L20.1039 44.7525C20.1039 44.7525 17.68 43.834 17.5628 43.7241C17.4456 43.6143 17.1588 42.7315 16.6659 42.9155C16.5542 43.0253 16.7036 43.3932 16.4047 43.3932C15.9563 43.3932 16.1057 42.7315 16.068 42.6216C16.0303 42.5118 15.7691 42.3278 15.7691 42.3278H15.0958L14.7227 42.6957V43.1722H14.0131V40.5252L13.3398 40.0844L13.3034 38.9462L13.0044 38.6524L12.7055 38.9462L12.6678 40.0844L11.9945 40.5252V43.1722H7.21122L6.94998 38.5147C6.89213 38.2253 6.8046 37.9424 6.68873 37.6703C6.56675 37.4555 6.41592 37.2579 6.2403 37.0827V35.9815L5.94135 35.1728L5.64239 25.5441H5.56833L5.26938 35.1662L5.04449 35.9749V37.076C4.83683 37.2405 4.66 37.4394 4.522 37.6637C4.39843 37.9491 4.29845 38.2439 4.22304 38.5452L3.99815 43.0994L3.77057 44.0537L1.41531 44.4587L0.673317 44.8253L0 46.5882Z" fill="#1D1D1B"/>
    <path d="M46.3915 26.5367C41.813 26.1397 28.8853 26.0073 26.4613 26.8014C24.4414 28.2573 20.9401 34.875 22.0175 42.5514C32.5212 35.8014 43.1596 41.2279 46.3915 42.5514C45.5835 40.9632 41.2743 32.625 46.3915 26.5367Z" fill="#BF1515"/>
    <path d="M45.2469 14.8314C41.8803 14.5389 32.3852 14.4423 30.6049 15.026C29.1236 16.0954 26.5475 20.9567 27.3393 26.5963C35.0569 21.637 42.8728 25.6248 45.2496 26.5963C44.653 25.4303 41.4871 19.3037 45.2469 14.8314Z" fill="#BF1515"/>
    <path d="M44.4389 6.35301C42.0149 6.14257 35.1673 6.07242 33.8839 6.4933C32.8147 7.26359 30.9604 10.7683 31.53 14.8315C37.093 11.258 42.7273 14.1301 44.4389 14.8315C44.0106 13.9884 41.7294 9.57315 44.4389 6.35301Z" fill="#BF1515"/>
    <path d="M13.399 24.1544C13.399 24.1544 24.7107 37.2574 25.1147 38.5809C25.2494 40.1691 25.2494 40.9632 25.0474 42.3529C24.8454 43.7427 22.9601 43.3456 23.0274 45.3971C23.0947 47.4485 25.9335 50.0294 28.5486 50.4265C30.2992 50.6912 31.7132 49.5662 32.4539 48.8382C33.1945 48.1103 34.5263 47.7649 35.9551 47.3824C37.4364 46.9853 41.7456 47.1177 42.9576 47.9118C44.1696 48.7059 45.7855 48.9706 46.9975 48.4412C48.4788 48.0441 49.4888 46.7868 49.5561 45.9265C49.6234 45.0662 49.6234 44.1397 49.6234 44.1397C49.6234 44.1397 43.1596 44.1397 39.389 42.8162C37.5037 42.1544 32.9252 40.9632 29.6933 38.0515C26.8653 35.9338 13.399 24.1544 13.399 24.1544Z" fill="#1D1D1B"/>
    <path d="M15.0823 9.79412C15.0823 9.79412 19.1491 5.625 20.9873 5.55882C22.8254 5.49265 23.7384 7.08088 25.9079 6.88235C28.0773 6.68382 32.8201 2.11765 34.0025 1.125C35.1848 0.132353 37.4364 0 37.4364 0V4.44971C37.4364 4.44971 34.595 4.36765 33.3292 4.96324C31.5247 5.69118 30.5012 7.67647 29.1546 8.40441C27.808 9.13235 24.6945 9.52941 23.2294 8.80147C21.7643 8.07353 22.1521 8.00735 20.7058 7.94118C19.1895 8.00735 15.0823 9.79412 15.0823 9.79412Z" fill="#1D1D1B"/>
    <path d="M12.793 48.5735L16.1596 54H48.4788L54 46.3235C54 46.3235 47.3342 51.8162 44.7756 51.8162C42.217 51.8162 41.5437 49.6985 37.9077 49.6985C34.2718 49.6985 31.9826 53.0074 29.424 53.0074C26.8653 53.0074 24.4414 49.5662 22.1521 49.5662C19.8629 49.5662 19.1895 51.8162 17.4389 51.8162C15.6883 51.8162 12.793 48.5735 12.793 48.5735Z" fill="#1D1D1B"/>
</svg>
